<svg width="40" height="40" viewBox="0 0 40 40" fill="none" xmlns="http://www.w3.org/2000/svg">
<path d="M36 0H4C1.79086 0 0 1.79086 0 4V36C0 38.2091 1.79086 40 4 40H36C38.2091 40 40 38.2091 40 36V4C40 1.79086 38.2091 0 36 0Z" fill="url(#paint0_linear)"/>
<path d="M4.89912 17.5766C4.89912 18.1616 4.90487 18.7472 4.89605 19.3322C4.89277 19.5171 4.93029 19.6035 5.11668 19.5902C5.34551 19.5735 5.57598 19.5929 5.80481 19.585C6.32809 19.5674 6.64406 19.31 6.76483 18.7429C6.93359 17.9519 6.92887 17.1486 6.77037 16.3575C6.6496 15.7559 6.40088 15.571 5.84233 15.5701C5.60243 15.5692 5.36232 15.5807 5.12324 15.5655C4.94321 15.5552 4.89195 15.6265 4.89523 15.8211C4.90548 16.4061 4.89912 16.9908 4.89912 17.5766ZM4 14.69C4.59361 14.6927 5.18721 14.6955 5.78164 14.6955C6.96803 14.697 7.56246 15.1939 7.71604 16.4738C7.812 17.2834 7.85855 18.121 7.62807 18.9278C7.3976 19.7347 6.71767 20.4948 5.75929 20.4174C5.55199 20.4007 5.34161 20.4296 5.13431 20.4104C4.93603 20.3919 4.89277 20.4739 4.89441 20.6807C4.90405 21.8047 4.89748 22.9295 4.89994 24.0535C4.90076 24.3073 4.93193 24.5784 4.67603 24.7141C4.42157 24.848 4.19828 24.7423 4 24.5511V14.69Z" fill="white"/>
<path d="M16.2146 28C15.9314 27.5774 15.9273 27.5051 16.2306 27.0435C16.4139 26.766 16.4379 26.4454 16.4489 26.1291C16.4666 25.6245 16.4489 25.1188 16.4569 24.6133C16.4602 24.4185 16.4266 24.3727 16.2482 24.4634C15.8986 24.6422 15.5369 24.7664 15.1385 24.763C14.557 24.7567 14.1809 24.4528 13.9545 23.8821C13.7698 23.4188 13.7505 22.9246 13.7464 22.4341C13.7345 21.2396 13.7409 20.045 13.7434 18.8508C13.7442 18.4701 13.9113 18.2728 14.2184 18.2755C14.5082 18.2791 14.6482 18.4658 14.6482 18.8526C14.649 20.0812 14.6466 21.3091 14.6497 22.5388C14.6513 22.8718 14.6946 23.2003 14.8145 23.5105C14.9377 23.8311 15.161 23.9507 15.4674 23.9006C15.5289 23.89 15.5906 23.8778 15.6513 23.8627C16.3929 23.6733 16.4547 23.5888 16.4547 22.7634C16.4547 21.4651 16.4538 20.1676 16.4547 18.8702C16.4547 18.4649 16.5931 18.2843 16.9041 18.2755C17.2082 18.2685 17.3507 18.4552 17.3507 18.8666C17.3513 21.3021 17.3419 23.7358 17.3563 26.1707C17.361 26.9281 17.1602 27.5492 16.5906 28H16.2146Z" fill="white"/>
<path d="M24.6682 12C24.6963 12.0908 24.785 12.081 24.8418 12.1251C25.1146 12.3357 25.1217 12.6414 24.8377 12.8421C24.5201 13.0649 24.1802 13.0977 23.8377 12.9055C23.5234 12.7303 23.5033 12.4177 23.7881 12.1788C23.8681 12.112 23.9571 12.0591 24.0418 12H24.6682Z" fill="white"/>
<path d="M11.2027 22.3833C11.1115 22.2272 11.3491 21.941 11.0772 21.7798C10.7932 21.6134 10.5027 21.4662 10.1754 21.4292C9.75304 21.38 9.51396 21.5445 9.36674 21.9877C9.22034 22.43 9.23551 22.8887 9.26832 23.3443C9.28595 23.5918 9.44343 23.7405 9.67062 23.8015C10.5099 24.0268 11.2027 23.4111 11.2027 22.3833ZM11.1947 20.9659C11.2363 19.619 10.718 18.9885 9.52032 18.881C9.37638 18.8677 9.2228 18.8607 9.11556 18.7329C9.00586 18.6035 8.93942 18.4572 8.9995 18.2669C9.05548 18.0881 9.17789 18.0186 9.32983 18.0037C10.4955 17.8874 12.1859 18.6555 12.1308 20.6699C12.0996 21.8159 12.1252 22.9646 12.1252 24.1133C12.1252 24.5634 11.9827 24.758 11.6548 24.758C11.3171 24.7571 11.206 24.5987 11.2027 24.1097V23.9105C11.0803 24.0383 10.9884 24.1352 10.8956 24.232C10.4916 24.6531 10.01 24.8197 9.4627 24.751C8.86991 24.6779 8.40979 24.079 8.33782 23.2624C8.2923 22.7348 8.33228 22.2078 8.47787 21.6996C8.75878 20.7194 9.48997 20.3448 10.5052 20.6523C10.7348 20.721 10.954 20.8196 11.1947 20.9659Z" fill="white"/>
<path d="M21.7327 21.4474C21.7128 20.9101 21.7704 20.3691 21.6687 19.8363C21.5984 19.4654 21.4751 19.1306 21.1319 18.9669C20.5278 18.678 19.9094 19.1394 19.8454 19.935C19.7975 20.5401 19.7558 21.1469 19.7952 21.7547C19.8335 22.3457 19.8446 22.9455 20.0991 23.4901C20.4071 24.1471 21.1071 24.1823 21.4743 23.5614C21.5775 23.3869 21.6351 23.1941 21.6728 22.9898C21.7655 22.4789 21.7128 21.9617 21.7327 21.4474ZM22.6105 21.3864C22.5992 22.1635 22.6127 22.9431 22.3544 23.6883C22.0808 24.4837 21.5016 24.8977 20.6759 24.8826C19.932 24.8695 19.3966 24.4494 19.1663 23.6425C18.8871 22.6665 18.8823 21.656 18.9383 20.6466C18.9615 20.2362 19.0006 19.8266 19.0958 19.4248C19.3174 18.4779 19.9422 17.9846 20.9063 18.0068C21.7392 18.0253 22.3064 18.5669 22.4768 19.5067C22.4967 19.6187 22.5168 19.7305 22.536 19.8424C22.6199 20.3533 22.5943 20.8712 22.6105 21.3864Z" fill="white"/>
<path d="M26.8672 21.4511C26.8553 20.8461 26.9066 20.2356 26.7448 19.6418C26.6601 19.3355 26.5217 19.0808 26.2328 18.9576C25.64 18.7038 25.0585 19.1425 24.9753 19.8929C24.9 20.5677 24.9041 21.245 24.9248 21.9189C24.9408 22.421 24.9872 22.9267 25.176 23.3936C25.3128 23.7327 25.5217 23.9995 25.8978 23.9995C26.2728 23.9995 26.5193 23.7794 26.6729 23.4164C26.7426 23.25 26.7817 23.0755 26.8113 22.893C26.8865 22.414 26.8545 21.9322 26.8672 21.4511ZM27.7329 21.3667C27.7457 22.0907 27.7233 22.8138 27.5386 23.5123C27.2257 24.691 26.02 25.2477 25.0354 24.6795C24.5072 24.3756 24.2865 23.8268 24.1889 23.2315C23.98 21.9462 23.9593 20.6548 24.2392 19.3777C24.4416 18.4527 25.1233 17.964 26.0809 18.0089C26.8945 18.0466 27.4578 18.6051 27.6114 19.5213C27.7129 20.1317 27.7457 20.7474 27.7329 21.3667Z" fill="white"/>
<path d="M25.035 16.8269C24.6877 16.8208 24.3941 16.7495 24.1437 16.5443C23.7949 16.2589 23.7797 15.8431 24.0941 15.5171C24.5446 15.052 25.4917 14.9834 25.9934 15.378C26.3758 15.6792 26.3982 16.1011 26.0422 16.4447C25.7445 16.7319 25.3797 16.8102 25.035 16.8269Z" fill="white"/>
<path d="M22.0765 17.7232C21.7892 17.7275 21.49 17.6428 21.2325 17.4263C20.9083 17.1532 20.8884 16.7691 21.1691 16.4477C21.6268 15.9243 22.702 15.8769 23.1884 16.3596C23.474 16.6423 23.4644 17.0493 23.1533 17.3408C22.8548 17.6182 22.4972 17.7257 22.0765 17.7232Z" fill="white"/>
<path d="M28.233 17.386C27.9554 17.3966 27.6634 17.3323 27.4064 17.1331C27.0417 16.8521 27.0152 16.4134 27.3392 16.084C27.7985 15.6172 28.7682 15.567 29.2586 15.9845C29.6049 16.2795 29.6306 16.639 29.3218 16.9738C29.029 17.2925 28.6617 17.3885 28.233 17.386Z" fill="white"/>
<path d="M30.2681 20.1899C30.6098 20.1899 30.9323 20.2579 31.1947 20.5202C31.4683 20.7952 31.4787 21.1255 31.2282 21.4258C30.7851 21.9561 29.7123 22.031 29.2105 21.566C28.9066 21.2849 28.9122 20.8578 29.221 20.5557C29.4625 20.3186 29.8443 20.1857 30.2681 20.1899Z" fill="white"/>
<path d="M30.1334 19.2504C29.8822 19.2662 29.603 19.186 29.351 19.0115C28.9815 18.7553 28.9421 18.2981 29.2542 17.966C29.6799 17.5149 30.6358 17.4226 31.1254 17.7854C31.5583 18.1051 31.5693 18.595 31.1519 18.942C30.9062 19.1472 30.5814 19.2504 30.1334 19.2504Z" fill="white"/>
<path d="M32.3997 22.759C31.8607 22.7572 31.4926 22.5176 31.4565 22.167C31.4229 21.8437 31.7694 21.539 32.2687 21.4279C32.5591 21.3644 32.8271 21.4236 33.0799 21.5663C33.491 21.7979 33.5142 22.2578 33.1311 22.5386C32.9007 22.7086 32.6446 22.7888 32.3997 22.759Z" fill="white"/>
<path d="M19.8728 16.4818C19.6415 16.5003 19.4127 16.4359 19.2119 16.2811C18.9048 16.0458 18.8943 15.6873 19.1758 15.4168C19.5472 15.061 20.2872 15.024 20.6911 15.3419C20.9671 15.5577 20.9919 15.8968 20.7448 16.1576C20.5064 16.4095 20.2111 16.4951 19.8728 16.4818Z" fill="white"/>
<path d="M24.6874 14.7551C24.3769 14.7587 24.1586 14.6952 23.9601 14.5596C23.613 14.3236 23.597 13.9412 23.917 13.6613C24.2705 13.3502 24.9146 13.293 25.3083 13.5362C25.705 13.7827 25.7329 14.195 25.3731 14.4988C25.1481 14.6901 24.8865 14.7463 24.6874 14.7551Z" fill="white"/>
<path d="M29.9398 15.5812C29.735 15.6015 29.5527 15.5715 29.379 15.4789C29.1814 15.375 29.0165 15.2287 29.0013 14.9752C28.9886 14.733 29.135 14.5691 29.3118 14.4555C29.7013 14.2054 30.1149 14.1595 30.5375 14.3471C30.735 14.4352 30.9062 14.563 30.931 14.8289C30.9575 15.1109 30.8061 15.2755 30.6109 15.4069C30.4006 15.5477 30.1725 15.6137 29.9398 15.5812Z" fill="white"/>
<path d="M32.9352 18.6875C32.7056 18.706 32.4784 18.6356 32.276 18.4796C31.9943 18.2613 31.9694 17.9274 32.2104 17.663C32.5704 17.2677 33.3408 17.2077 33.7456 17.5434C34.0544 17.7996 34.0535 18.1678 33.7439 18.4295C33.5415 18.5995 33.2705 18.6884 32.9352 18.6875Z" fill="white"/>
<path d="M35.2882 17.1709C35.6937 17.1761 35.9841 17.3788 35.9995 17.6421C36.013 17.8861 35.7585 18.1283 35.405 18.19C35.2187 18.2218 35.0306 18.2094 34.8553 18.1186C34.7017 18.0394 34.557 17.9453 34.5498 17.7267C34.5434 17.5145 34.6681 17.391 34.8178 17.3005C34.973 17.2061 35.1418 17.1488 35.2882 17.1709Z" fill="white"/>
<path d="M34.2743 23.4875C33.8864 23.4866 33.58 23.2823 33.5567 23.0294C33.5312 22.7538 33.7535 22.5565 34.1576 22.4693C34.3727 22.4226 34.5743 22.4605 34.7592 22.5662C35.0849 22.7538 35.0857 23.0965 34.7761 23.3184C34.6137 23.4356 34.4295 23.462 34.2743 23.4875Z" fill="white"/>
<path d="M18.152 14.4185C18.5049 14.4219 18.8184 14.6386 18.8327 14.8888C18.8473 15.1416 18.5592 15.3963 18.2063 15.4412C18.1961 15.4428 18.1856 15.4419 18.1751 15.4428C17.764 15.4798 17.3816 15.2631 17.364 14.9841C17.3472 14.7012 17.7464 14.4149 18.152 14.4185Z" fill="white"/>
<path d="M31.2931 14.1035C31.1866 14.0868 31.089 14.0877 31.0027 14.055C30.8114 13.9827 30.6258 13.8841 30.6107 13.6242C30.5971 13.3786 30.7579 13.2587 30.9338 13.1698C31.1891 13.0404 31.4554 13.0228 31.7179 13.1354C31.8852 13.2068 32.0427 13.3115 32.0548 13.5398C32.0675 13.7687 31.9186 13.8841 31.762 13.9836C31.6123 14.0789 31.4411 14.0665 31.2931 14.1035Z" fill="white"/>
<defs>
<linearGradient id="paint0_linear" x1="39" y1="1" x2="-14" y2="53.5" gradientUnits="userSpaceOnUse">
<stop stop-color="#06AFEF"/>
<stop offset="1" stop-color="#055697"/>
</linearGradient>
</defs>
</svg>
